<?xml version="1.0" encoding="utf-8"?>
<!-- Generator: Adobe Illustrator 18.1.1, SVG Export Plug-In . SVG Version: 6.00 Build 0)  -->
<svg version="1.2" baseProfile="tiny" id="nautical"
	 xmlns="http://www.w3.org/2000/svg" xmlns:xlink="http://www.w3.org/1999/xlink" x="0px" y="0px" viewBox="0 0 30 32"
	 xml:space="preserve">
<path fill="#757880" d="M22,22v2h5.1c-2.6,3.3-6.9,5.6-11.1,6V16h4v-2h-4V9.9c2.3-0.5,4-2.5,4-4.9c0-2.8-2.2-5-5-5s-5,2.2-5,5
	c0,2.4,1.7,4.4,4,4.9V14h-4v2h4v14c-4.2-0.3-8.5-2.6-11.1-6H8v-2H0v8h2v-3.9c3.2,3.6,8.1,5.9,13,5.9s9.8-2.3,13-5.9V30h2v-8H22z
	 M12,5c0-1.7,1.3-3,3-3s3,1.3,3,3s-1.3,3-3,3S12,6.7,12,5z"/>
</svg>
